<svg aria-hidden="true" style="position: absolute; width: 0; height: 0; overflow: hidden;" version="1.1" xmlns="http://www.w3.org/2000/svg" xmlns:xlink="http://www.w3.org/1999/xlink">
<defs>
<symbol id="icon-close" viewBox="0 0 32 32">
<path d="M25.333 8.547l-1.88-1.88-7.453 7.453-7.453-7.453-1.88 1.88 7.453 7.453-7.453 7.453 1.88 1.88 7.453-7.453 7.453 7.453 1.88-1.88-7.453-7.453 7.453-7.453z"></path>
</symbol>
<symbol id="icon-alert" viewBox="0 0 32 32">
<path d="M30.667 28l-14.667-25.333-14.667 25.333h29.333zM14.667 24v-2.667h2.667v2.667h-2.667zM14.667 18.667h2.667v-5.333h-2.667v5.333z"></path>
</symbol>
<symbol id="icon-youtube" viewBox="0 0 46 32">
<path d="M45.715 6.836c0-0.001 0-0.001 0-0.002 0-3.774-3.059-6.833-6.833-6.834h-32.051c-3.773 0.001-6.831 3.060-6.831 6.834 0 0.001 0 0.002 0 0.002v-0 18.328c0 0.001 0 0.001 0 0.002 0 3.773 3.058 6.832 6.831 6.834h32.051c3.774-0.001 6.833-3.060 6.833-6.834 0-0.001 0-0.002 0-0.002v0-18.328z"></path>
<path fill="#fff" style="fill: var(--color2, #fff)" d="M18.285 24.94v-17.216l13.055 8.608-13.054 8.608z"></path>
</symbol>
<symbol id="icon-SL" viewBox="0 0 32 32">
<path d="M15.634 0.011c9.123-0.205 16.601 7.246 16.358 16.452-0.22 8.391-7.106 15.627-16.183 15.536-8.649-0.087-15.762-7.095-15.806-16 0.053-8.892 7.125-15.795 15.631-15.988z"></path>
<path fill="#fff" style="fill: var(--color2, #fff)" d="M27.275 17.956c0.848-0.628 1.362-1.443 1.26-2.541-0.101-1.077-0.645-1.877-1.631-2.315-1.067-0.47-2.087-0.338-3.003 0.41-0.105 0.085-0.169 0.089-0.275 0.019-1.697-1.12-3.568-1.746-5.584-1.951l-0.711-0.074 0.797-2.478 0.5-1.557 0.099 0.014c0.061 0.009 0.115 0.017 0.17 0.029l0.865 0.187c0.74 0.161 1.482 0.322 2.224 0.474 0.212 0.043 0.318 0.117 0.378 0.341 0.256 0.922 1.088 1.588 2.075 1.588 0.115 0 0.229-0.009 0.339-0.027l-0.012 0.002c1.462-0.237 2.257-1.813 1.548-3.075-0.567-1.009-2.33-1.613-3.465-0.292-0.111 0.13-0.206 0.16-0.371 0.125-0.974-0.213-1.95-0.421-2.925-0.629l-1.090-0.231c-0.557-0.119-0.816 0.032-0.988 0.577-0.16 0.511-0.322 1.021-0.483 1.532-0.322 1.022-0.645 2.045-0.966 3.068-0.042 0.132-0.077 0.229-0.255 0.228-0.903-0.006-1.793 0.122-2.676 0.308-1.583 0.335-3.056 0.933-4.395 1.846-0.123 0.083-0.197 0.050-0.309-0.002-0.212-0.097-0.334-0.157-0.454-0.219l0.083 0.039c-0.332-0.164-0.665-0.331-1.017-0.422-1.669-0.443-3.651 0.914-3.31 3.143 0.133 0.877 0.655 1.511 1.373 1.993 0.118 0.079 0.144 0.149 0.123 0.279-0.201 1.205-0.075 2.377 0.412 3.502 0.692 1.6 1.883 2.757 3.329 3.669 1.651 1.043 3.483 1.571 5.403 1.813 1.679 0.209 3.349 0.129 4.999-0.242 2.374-0.537 4.49-1.555 6.117-3.423 1.291-1.481 1.862-3.202 1.597-5.167-0.036-0.261 0.027-0.388 0.23-0.54zM21.628 18.038c0.003 0.886-0.793 1.68-1.687 1.681-0.931 0-1.693-0.783-1.694-1.743 0-0.879 0.784-1.649 1.685-1.652 0.927-0.002 1.692 0.77 1.696 1.714zM20.34 22.934c0.194-0.224 0.144-0.492-0.034-0.669-0.249-0.245-0.569-0.315-0.817-0.173-0.057 0.032-0.109 0.069-0.162 0.106-0.043 0.029-0.085 0.058-0.128 0.084-1.714 1.042-3.506 1.204-5.362 0.432-0.32-0.144-0.589-0.291-0.845-0.457l0.025 0.015c-0.090-0.053-0.178-0.108-0.269-0.16-0.267-0.156-0.602-0.101-0.857 0.157-0.169 0.171-0.19 0.461-0.021 0.7 0.096 0.134 0.224 0.256 0.359 0.35 1.161 0.815 2.464 1.155 3.974 1.172l0.165-0.011c0.154-0.011 0.345-0.023 0.535-0.042 0.939-0.085 1.833-0.333 2.642-0.819 0.295-0.18 0.565-0.425 0.794-0.686zM13.965 18.034c0.004 0.858-0.802 1.683-1.643 1.685-0.955 0.001-1.747-0.766-1.75-1.694-0.002-0.917 0.774-1.7 1.685-1.7 0.924 0 1.705 0.779 1.708 1.709z"></path>
</symbol>
<symbol id="icon-google" viewBox="0 0 49 32">
<path d="M30.615 13.905c0.145 0.899 0.294 1.795 0.294 2.692 0 4.636-1.324 8.374-4.268 11.066-2.799 2.841-6.332 4.336-10.895 4.336-4.415 0-8.095-1.495-11.185-4.636s-4.561-6.879-4.561-11.364c0-4.486 1.472-8.224 4.563-11.364s6.771-4.636 11.185-4.636c4.122 0 7.654 1.345 10.598 4.186l-4.266 4.189c-1.62-1.644-3.827-2.393-6.33-2.393-2.649 0-5.004 1.047-6.918 2.991-1.913 2.095-2.943 4.486-2.943 7.178 0 2.841 1.030 5.233 2.943 7.177 1.914 1.945 4.269 2.991 6.918 2.991 2.208 0 4.122-0.596 5.888-1.793 1.766-1.345 2.797-2.991 3.091-5.084h-8.979v-5.536h14.865zM49.455 18.544h-4.416v4.636h-4.563v-4.636h-4.563v-4.639h4.563v-4.634h4.563v4.634h4.416v4.636z"></path>
</symbol>
<symbol id="icon-in" viewBox="0 0 32 32">
<path d="M30.024 0h-27.456c-1.314 0-2.568 0.893-2.568 2.168v27.599c0 1.273 1.254 2.233 2.568 2.233h27.456c1.314 0 1.976-0.959 1.976-2.233v-27.6c0-1.273-0.661-2.167-1.976-2.167z"></path>
<path fill="#fff" style="fill: var(--color2, #fff)" d="M9.455 26.909h-4.365v-14.545h4.365v14.545zM7.52 10.183h-0.033c-1.632 0-2.69-1.061-2.69-2.457 0-1.426 1.089-2.485 2.754-2.485s2.689 1.043 2.72 2.47c0 1.398-1.055 2.472-2.751 2.472zM27.634 26.91h-5.090v-7.863c0-1.957-0.661-3.291-2.419-3.291-1.346 0-2.152 0.901-2.503 1.769-0.13 0.311-0.168 0.745-0.168 1.178v8.207h-4.809s0.064-13.090 0-14.545h4.809v1.979c0.727-0.991 1.897-2.405 4.48-2.405 3.203 0 5.702 2.078 5.702 6.549v8.423zM17.479 14.391c0.012-0.018 0.023-0.033 0.034-0.048l-0.002 0.002v0.046h-0.032z"></path>
</symbol>
<symbol id="icon-f" viewBox="0 0 16 32">
<path d="M10.381 32v-14.595h4.718l0.705-5.689h-5.424v-3.627c0-1.653 0.437-2.765 2.718-2.765h2.903v-5.104c-0.507-0.073-2.225-0.219-4.225-0.219-4.183 0-7.043 2.647-7.043 7.518v4.198h-4.731v5.689h4.731v14.595h5.649z"></path>
</symbol>
<symbol id="icon-twitter" viewBox="0 0 39 32">
<path d="M38.957 3.786c-1.433 0.643-2.972 1.078-4.589 1.273 1.655-1.017 2.897-2.569 3.497-4.41l0.016-0.057c-1.461 0.89-3.162 1.57-4.975 1.944l-0.103 0.018c-1.453-1.572-3.526-2.553-5.828-2.553-0.002 0-0.004 0-0.006 0h0c-4.413 0-7.992 3.619-7.992 8.079 0 0.633 0.071 1.251 0.209 1.842-6.642-0.338-12.53-3.555-16.473-8.445-0.679 1.159-1.080 2.551-1.080 4.038 0 0.009 0 0.018 0 0.026v-0.001c-0 0.006-0 0.013-0 0.020 0 2.777 1.397 5.228 3.527 6.687l0.028 0.018c-1.337-0.046-2.578-0.417-3.659-1.035l0.039 0.020v0.102c0 3.914 2.755 7.179 6.41 7.923-0.671 0.182-1.376 0.284-2.106 0.284-0.515 0-1.016-0.053-1.504-0.15 1.017 3.213 3.968 5.549 7.463 5.613-2.691 2.152-6.144 3.453-9.901 3.453-0.008 0-0.016 0-0.024-0h0.001c-0.646 0-1.28-0.039-1.906-0.111 3.451 2.28 7.686 3.637 12.237 3.637 0.004 0 0.008 0 0.012 0h-0.001c14.702 0 22.737-12.313 22.737-22.993l-0.026-1.046c1.579-1.15 2.906-2.534 3.96-4.115l0.037-0.059z"></path>
</symbol>
<symbol id="icon-Shape" viewBox="0 0 48 32">
<path  d="M47.472 14.744c0.704 0.693 0.704 1.82 0 2.514l-14.441 14.222c-0.704 0.693-1.848 0.693-2.552 0s-0.704-1.82 0-2.514l11.358-11.189h-40.031c-0.996 0-1.805-0.793-1.805-1.778 0-0.981 0.809-1.778 1.805-1.778h40.031l-11.358-11.185c-0.704-0.693-0.704-1.82 0-2.514 0.354-0.348 0.816-0.523 1.274-0.523 0.462 0 0.924 0.174 1.278 0.523l14.441 14.222z"></path>
</symbol>
<symbol id="icon-Amazon" viewBox="0 0 167 32">
<path fill="#7c7a6e" style="fill: var(--color1, #7c7a6e)" d="M65.82 25.032c-6.164 4.549-15.101 6.968-22.797 6.968-10.785 0-20.498-3.987-27.848-10.623-0.576-0.522-0.062-1.233 0.631-0.83 7.929 4.614 17.736 7.394 27.864 7.394 6.832 0 14.343-1.418 21.254-4.35 1.042-0.441 1.916 0.687 0.896 1.441z"></path>
<path fill="#7c7a6e" style="fill: var(--color1, #7c7a6e)" d="M68.386 22.102c-0.789-1.009-5.212-0.478-7.199-0.24-0.602 0.073-0.696-0.454-0.153-0.834 3.529-2.479 9.311-1.763 9.983-0.933 0.677 0.836-0.179 6.634-3.484 9.4-0.509 0.425-0.993 0.198-0.767-0.363 0.745-1.859 2.41-6.019 1.621-7.030z"></path>
<path fill="#889099" style="fill: var(--color2, #889099)" d="M61.327 3.519v-2.408c0.002-0.367 0.278-0.61 0.61-0.61l10.794-0.001c0.345 0 0.623 0.25 0.623 0.608v2.065c-0.004 0.347-0.296 0.798-0.813 1.516l-5.591 7.983c2.075-0.048 4.27 0.263 6.157 1.322 0.425 0.239 0.54 0.593 0.573 0.94v2.569c0 0.354-0.387 0.764-0.796 0.551-3.322-1.741-7.73-1.931-11.404 0.021-0.375 0.2-0.767-0.204-0.767-0.558v-2.443c0-0.39 0.008-1.059 0.402-1.655l6.477-9.293-5.64-0.001c-0.345 0-0.622-0.246-0.624-0.607z"></path>
<path fill="#889099" style="fill: var(--color2, #889099)" d="M21.955 18.56h-3.284c-0.313-0.020-0.562-0.254-0.588-0.555l0.003-16.854c0-0.336 0.284-0.606 0.634-0.606l3.058-0.001c0.319 0.016 0.576 0.258 0.596 0.566v2.2h0.062c0.797-2.128 2.298-3.121 4.321-3.121 2.053 0 3.341 0.993 4.261 3.121 0.797-2.128 2.605-3.121 4.536-3.121 1.38 0 2.881 0.568 3.801 1.845 1.042 1.419 0.829 3.476 0.829 5.284l-0.004 10.636c0 0.335-0.283 0.606-0.633 0.606h-3.279c-0.331-0.021-0.59-0.282-0.59-0.605l-0.001-8.935c0-0.709 0.061-2.482-0.093-3.155-0.245-1.136-0.98-1.455-1.93-1.455-0.798 0-1.625 0.532-1.963 1.383-0.337 0.852-0.306 2.27-0.306 3.228v8.934c0 0.335-0.284 0.606-0.633 0.606h-3.28c-0.33-0.021-0.59-0.282-0.59-0.605l-0.004-8.935c0-1.88 0.307-4.645-2.022-4.645-2.361 0-2.268 2.694-2.268 4.645l-0.002 8.934c0 0.335-0.284 0.606-0.633 0.606z"></path>
<path fill="#889099" style="fill: var(--color2, #889099)" d="M82.675 3.631c-2.421 0-2.574 3.297-2.574 5.354s-0.030 6.455 2.545 6.455c2.544 0 2.667-3.547 2.667-5.71 0-1.418-0.062-3.121-0.491-4.469-0.368-1.171-1.104-1.631-2.146-1.631zM82.645 0.19c4.873 0 7.509 4.186 7.509 9.506 0 5.141-2.912 9.22-7.509 9.22-4.783 0-7.388-4.185-7.388-9.398 0-5.249 2.636-9.328 7.388-9.328z"></path>
<path fill="#889099" style="fill: var(--color2, #889099)" d="M96.475 18.56h-3.272c-0.328-0.021-0.589-0.282-0.589-0.605l-0.006-16.859c0.028-0.309 0.3-0.55 0.631-0.55l3.046-0.001c0.287 0.015 0.524 0.21 0.584 0.472v2.578h0.061c0.92-2.306 2.207-3.405 4.475-3.405 1.471 0 2.912 0.532 3.832 1.986 0.858 1.348 0.858 3.616 0.858 5.248v10.606c-0.036 0.299-0.304 0.53-0.629 0.53h-3.291c-0.304-0.019-0.549-0.243-0.585-0.53v-9.15c0-1.845 0.215-4.541-2.053-4.541-0.797 0-1.533 0.532-1.9 1.348-0.46 1.029-0.522 2.057-0.522 3.193v9.075c-0.006 0.335-0.289 0.606-0.639 0.606z"></path>
<path fill="#889099" style="fill: var(--color2, #889099)" d="M56.032 18.519c-0.216 0.195-0.529 0.208-0.775 0.077-1.090-0.906-1.286-1.325-1.882-2.189-1.802 1.836-3.079 2.387-5.414 2.387-2.764 0-4.915-1.707-4.915-5.118 0-2.666 1.445-4.478 3.502-5.367 1.781-0.782 4.269-0.924 6.175-1.138v-0.426c0-0.783 0.061-1.706-0.4-2.381-0.4-0.605-1.167-0.853-1.843-0.853-1.253 0-2.365 0.642-2.639 1.971-0.058 0.296-0.273 0.59-0.57 0.605l-3.184-0.345c-0.268-0.061-0.567-0.277-0.49-0.687 0.723-3.807 4.123-4.994 7.213-5.026h0.244c1.582 0.020 3.602 0.454 4.833 1.634 1.598 1.493 1.443 3.483 1.443 5.652v5.115c0 1.539 0.64 2.214 1.24 3.043 0.211 0.3 0.257 0.654-0.010 0.873-0.671 0.562-1.863 1.597-2.517 2.181l-0.009-0.008zM52.723 10.513c0 1.28 0.030 2.345-0.614 3.483-0.523 0.923-1.352 1.492-2.274 1.492-1.259 0-1.996-0.959-1.996-2.381 0-2.797 2.508-3.306 4.884-3.306v0.712z"></path>
<path fill="#889099" style="fill: var(--color2, #889099)" d="M12.987 18.519c-0.217 0.195-0.531 0.208-0.776 0.077-1.091-0.906-1.287-1.325-1.882-2.189-1.803 1.836-3.079 2.387-5.414 2.387-2.764 0-4.915-1.707-4.915-5.118 0-2.666 1.443-4.478 3.502-5.367 1.781-0.782 4.269-0.924 6.174-1.138v-0.426c0-0.783 0.062-1.706-0.399-2.381-0.4-0.605-1.168-0.853-1.843-0.853-1.253 0-2.367 0.642-2.639 1.971-0.057 0.296-0.273 0.59-0.571 0.605l-3.183-0.345c-0.269-0.061-0.568-0.277-0.49-0.687 0.721-3.807 4.122-4.994 7.213-5.026h0.244c1.582 0.020 3.602 0.454 4.833 1.634 1.597 1.493 1.443 3.483 1.443 5.652v5.115c0 1.539 0.64 2.214 1.24 3.043 0.209 0.3 0.257 0.654-0.010 0.873-0.671 0.562-1.864 1.597-2.518 2.181l-0.008-0.008zM9.676 10.513c0 1.28 0.031 2.345-0.614 3.483-0.522 0.923-1.351 1.492-2.274 1.492-1.259 0-1.996-0.959-1.996-2.381 0-2.797 2.509-3.306 4.884-3.306v0.712z"></path>
<path fill="#889099" style="fill: var(--color2, #889099)" d="M150.983 24.606c0-0.427 0-0.811 0-1.238 0-0.352 0.173-0.595 0.541-0.574 0.686 0.097 1.657 0.195 2.345 0.053 0.9-0.187 1.545-0.825 1.927-1.699 0.538-1.23 0.894-2.223 1.119-2.874l-6.831-16.923c-0.115-0.287-0.149-0.82 0.424-0.82h2.388c0.455 0 0.641 0.289 0.743 0.573l4.953 13.746 4.728-13.746c0.096-0.282 0.29-0.573 0.742-0.573h2.252c0.57 0 0.538 0.532 0.424 0.82l-6.776 17.451c-0.877 2.323-2.045 6.022-4.676 6.665-1.319 0.345-2.983 0.22-3.96-0.189-0.247-0.124-0.341-0.455-0.341-0.673z"></path>
<path fill="#889099" style="fill: var(--color2, #889099)" d="M147.797 17.529c0 0.315-0.258 0.573-0.575 0.573h-1.684c-0.364 0-0.612-0.263-0.659-0.573l-0.169-1.146c-0.774 0.655-1.724 1.23-2.754 1.631-1.981 0.769-4.264 0.897-6.199-0.292-1.4-0.859-2.142-2.538-2.142-4.27 0-1.34 0.413-2.669 1.329-3.633 1.222-1.318 2.993-1.966 5.131-1.966 1.292 0 3.14 0.152 4.485 0.592v-2.307c0-2.345-0.988-3.36-3.591-3.36-1.99 0-3.512 0.3-5.631 0.959-0.339 0.011-0.538-0.247-0.538-0.561v-1.315c0-0.316 0.269-0.621 0.561-0.713 1.513-0.66 3.656-1.071 5.935-1.146 2.97 0 6.501 0.67 6.501 5.238v12.291zM144.561 14.162v-3.48c-1.13-0.309-3-0.438-3.724-0.438-1.143 0-2.396 0.27-3.049 0.974-0.489 0.516-0.71 1.257-0.71 1.973 0 0.926 0.32 1.855 1.069 2.314 0.869 0.591 2.218 0.519 3.485 0.159 1.218-0.346 2.362-0.957 2.929-1.503z"></path>
<path fill="#889099" style="fill: var(--color2, #889099)" d="M122.968 2.829c-1.431 0-3.148 0.558-4.493 1.592v9.619c1.293 0.955 3.023 1.641 4.338 1.641 1.478 0 2.46-0.236 3.339-1.103 1.175-1.158 1.591-3.18 1.571-5.448 0-3.364-1.018-6.302-4.754-6.302zM117.902 25.21h-2.256c-0.316 0-0.574-0.258-0.574-0.573 0-7.834 0-15.669 0-23.503 0-0.315 0.258-0.573 0.574-0.573h1.727c0.363 0 0.611 0.263 0.658 0.573l0.181 1.231c1.617-1.435 3.699-2.356 5.682-2.356 5.556 0 7.382 4.578 7.382 9.337 0 5.093-2.794 9.184-7.52 9.184-1.99 0-3.851-0.734-5.282-2.010v8.116c0 0.315-0.258 0.573-0.573 0.573z"></path>
</symbol>
<symbol id="icon-OKPay" viewBox="0 0 132 32">
<path fill="#889099" style="fill: var(--color1, #889099)" d="M129.986 2.498h-2.007c-1.284 0-2.238 0.862-2.976 1.915l-6.292 8.96-3.728-5.308c-0.018-0.027-0.027-0.050-0.046-0.078l-2.51-3.566c-0.74-1.051-1.703-1.911-2.987-1.911h-1.861c-1.285 0-2.117 0.859-1.374 1.908l2.528 3.573 0.018 0.021 7.193 10.156v11.495c0 1.289 1.051 2.34 2.336 2.338l0.871-0.002c1.284 0 2.336-1.058 2.336-2.345v-11.499l7.662-10.814c0.023-0.032 0.053-0.062 0.076-0.094l2.004-2.837c0.743-1.051 0.044-1.911-1.241-1.911zM46.14 16.32l12.32-11.856c0.912-0.878-0.071-1.966-1.319-1.966h-2.745c-1.25 0-1.881 0.722-2.791 1.605l-8.795 8.524v-3.778h-0.014c0.004-0.050 0.014-0.1 0.014-0.151v-3.858c0-1.289-1.020-2.343-2.27-2.343h-1.020c-1.25 0-2.272 1.054-2.272 2.343v3.858c0 0.052 0.011 0.101 0.014 0.151h-0.014v20.809c0 1.287 1.022 2.341 2.272 2.341h1.020c1.25 0 2.27-1.054 2.27-2.341v-9.317l4.9 5.040h0.005l4.821 4.965c0.884 0.908 1.493 1.653 2.743 1.653h2.748c1.25 0 1.781-1.524 0.898-2.432l-12.786-13.248zM100.478 19.209h-5.378c-0.647 0-0.974-0.487-0.732-1.084l2.969-7.28c0.244-0.596 0.644-0.596 0.889 0l2.983 7.282c0.244 0.596-0.085 1.084-0.731 1.084zM111.28 29.079h0.014l-9.376-23.312h-0.005l-0.439-1.095c-0.48-1.195-1.929-2.174-3.221-2.174h-0.932c-1.291 0-2.74 0.98-3.216 2.178l-0.434 1.092h-0.018l-9.687 24.060c-0.484 1.195 0.18 2.172 1.472 2.172h2.089c1.292 0 1.899-0.987 2.347-2.196l0.316-0.848h0.012l1.888-5.020h11.417l0.155 0.402 0.116 0.24 1.684 4.501h0.005l0.27 0.725c0.45 1.209 1.239 2.196 2.532 2.196h1.849c1.292 0 1.952-0.978 1.467-2.169l-0.304-0.752zM82.22 13.564c-0.213 0.545-0.538 1.006-0.949 1.373l-0.004 0.003c-0.844 0.747-2.105 1.154-3.801 1.154h-3.063c-0.002 0-0.004 0-0.005 0-0.65 0-1.179-0.524-1.186-1.173v-6.566c0-0.644 0.535-1.17 1.191-1.17h3.063c1.696 0 2.956 0.405 3.801 1.156 0.421 0.373 0.736 0.823 0.953 1.371 0.213 0.546 0.324 1.184 0.324 1.918 0 0.741-0.11 1.383-0.324 1.934zM87.749 15.57c0.48-1.15 0.715-2.468 0.715-3.94 0-1.461-0.236-2.772-0.713-3.915-0.485-1.161-1.216-2.136-2.133-2.893l-0.013-0.010c-1.888-1.554-4.64-2.315-8.139-2.315h-7.572c-1.31 0-2.382 1.054-2.382 2.343v24.818c0 1.287 1.072 2.341 2.382 2.341h0.932c1.312 0 2.384-1.054 2.384-2.341v-8.878h4.256c3.499 0 6.251-0.754 8.139-2.306 0.949-0.779 1.671-1.756 2.146-2.905zM26.667 24.284c-0.782 0.978-1.676 1.694-2.711 2.169-1.031 0.475-2.213 0.715-3.564 0.715-1.355 0-2.537-0.24-3.573-0.715-1.042-0.475-1.94-1.198-2.729-2.178-0.924-1.143-1.579-2.574-1.973-4.263l-0.364-2.459c-0.036-0.423-0.057-0.915-0.057-1.413 0-0.362 0.011-0.722 0.033-1.079l-0.002 0.049 0.281-2.457c0.368-1.922 1.065-3.532 2.084-4.8l-0.004 0.009h0.004c0.789-0.99 1.689-1.705 2.729-2.178 1.036-0.476 2.219-0.716 3.573-0.716 1.351 0 2.532 0.24 3.564 0.716 1.035 0.473 1.929 1.188 2.711 2.169 1.564 1.961 2.375 4.713 2.375 8.222 0 3.5-0.811 6.247-2.375 8.206zM30.976 4.516c-2.642-2.905-6.235-4.384-10.585-4.375-4.373-0.011-7.972 1.468-10.615 4.375-1.947 2.133-3.18 4.832-3.685 8.018v0.011l-0.236 2.514v0.016c-0.016 0.32-0.036 0.645-0.036 1.003 0 0.53 0.025 1.042 0.055 1.54v0.018l0.32 2.512v0.007c0.558 2.948 1.742 5.468 3.582 7.484 2.645 2.892 6.244 4.372 10.613 4.363 4.352 0.009 7.945-1.47 10.587-4.379 2.624-2.887 3.943-6.791 3.943-11.545 0-4.761-1.316-8.674-3.943-11.559z"></path>
<path fill="#889099" style="fill: var(--color1, #889099)" d="M20.315 14.299h-19.15l1.801-3.54h19.15l-1.801 3.538zM16.727 21.38h-16.727l1.897-3.541h16.727l-1.899 3.541z"></path>
</symbol>
<symbol id="icon-Bitcoin" viewBox="0 0 105 32">
<path fill="#889099" style="fill: var(--color1, #889099)" d="M32.089 6.611c0.888 0 1.653 0.157 2.297 0.468 0.647 0.313 1.181 0.736 1.609 1.267 0.423 0.535 0.737 1.16 0.941 1.875 0.2 0.717 0.303 1.488 0.303 2.315 0 1.267-0.233 2.467-0.705 3.595-0.475 1.143-1.125 2.121-1.928 2.951l0.002-0.003c-0.803 0.822-1.759 1.489-2.822 1.959l-0.058 0.023c-1.105 0.488-2.307 0.731-3.597 0.731-0.167 0-0.46-0.004-0.873-0.013-0.519-0.016-1.011-0.060-1.494-0.131l0.069 0.008c-0.677-0.097-1.254-0.213-1.82-0.359l0.116 0.025c-0.65-0.158-1.218-0.366-1.753-0.628l0.051 0.022 4.789-20.027 4.291-0.659-1.715 7.107c0.367-0.165 0.737-0.293 1.107-0.387 0.371-0.089 0.767-0.137 1.191-0.137zM28.491 18.404c0.647 0 1.255-0.159 1.827-0.469 0.573-0.309 1.069-0.729 1.484-1.253 0.403-0.509 0.736-1.097 0.969-1.734l0.014-0.044c0.228-0.61 0.36-1.316 0.36-2.052 0-0.005 0-0.010-0-0.016v0.001c0-0.881-0.147-1.569-0.443-2.067-0.296-0.493-0.841-0.743-1.635-0.743-0.26 0-0.595 0.049-1.011 0.137-0.416 0.093-0.788 0.288-1.123 0.58l-1.827 7.547c0.111 0.019 0.208 0.039 0.291 0.055 0.174 0.037 0.373 0.057 0.578 0.057 0.006 0 0.012-0 0.018-0h0.498zM41.691 21.404h-4.099l3.461-14.487h4.127l-3.489 14.488zM43.685 5.151c-0.573 0-1.091-0.169-1.552-0.507-0.464-0.339-0.693-0.859-0.693-1.559 0-0.385 0.079-0.747 0.235-1.087 0.159-0.343 0.368-0.636 0.623-0.882l0.001-0.001c0.254-0.242 0.552-0.441 0.879-0.586l0.020-0.008c0.343-0.147 0.707-0.219 1.096-0.219 0.572 0 1.088 0.169 1.549 0.509 0.46 0.34 0.692 0.86 0.692 1.556 0 0.387-0.079 0.749-0.236 1.089-0.307 0.667-0.841 1.186-1.501 1.466l-0.019 0.007c-0.316 0.139-0.684 0.22-1.071 0.22-0.008 0-0.016-0-0.024-0h0.001zM48.771 3.307l4.293-0.661-1.055 4.271h4.596l-0.829 3.36h-4.569l-1.217 5.068c-0.099 0.348-0.168 0.752-0.193 1.169l-0.001 0.015c-0.020 0.368 0.027 0.684 0.137 0.951 0.109 0.267 0.308 0.472 0.595 0.619s0.696 0.221 1.232 0.221c0.441 0 0.872-0.041 1.289-0.125 0.413-0.080 0.833-0.195 1.257-0.344l0.307 3.143c-0.482 0.182-1.084 0.362-1.701 0.502l-0.099 0.019c-0.647 0.148-1.413 0.22-2.299 0.22-1.273 0-2.261-0.187-2.964-0.563-0.703-0.377-1.199-0.893-1.496-1.544-0.293-0.651-0.424-1.4-0.387-2.244 0.039-0.847 0.165-1.736 0.387-2.673l2.716-11.401zM56.425 15.621c0-1.248 0.203-2.424 0.609-3.528 0.411-1.12 1.004-2.082 1.753-2.9l-0.006 0.007c0.758-0.819 1.674-1.48 2.702-1.934l0.052-0.021c1.077-0.477 2.283-0.717 3.612-0.717 0.035-0 0.077-0.001 0.118-0.001 0.748 0 1.476 0.086 2.174 0.248l-0.065-0.013c0.657 0.157 1.251 0.363 1.787 0.619l-1.413 3.199c-0.282-0.119-0.663-0.255-1.051-0.375l-0.096-0.025c-0.397-0.121-0.881-0.18-1.453-0.18-1.368 0-2.449 0.469-3.255 1.404-0.801 0.936-1.205 2.195-1.205 3.775 0 0.937 0.203 1.693 0.611 2.273 0.405 0.579 1.153 0.867 2.241 0.867 1.040-0.004 2.029-0.216 2.93-0.596l-0.050 0.019 0.307 3.277c-0.519 0.2-1.089 0.381-1.717 0.539-0.627 0.153-1.376 0.232-2.244 0.232-1.144 0-2.113-0.167-2.907-0.495-0.793-0.333-1.448-0.776-1.965-1.337-0.503-0.544-0.888-1.204-1.112-1.935l-0.009-0.036c-0.221-0.698-0.348-1.502-0.348-2.334 0-0.011 0-0.022 0-0.033v0.002zM74.629 21.791c-0.977 0-1.827-0.147-2.547-0.44-0.707-0.282-1.304-0.704-1.783-1.236l-0.004-0.004c-0.464-0.529-0.828-1.158-1.055-1.849l-0.011-0.038c-0.227-0.688-0.358-1.479-0.358-2.301 0-0.038 0-0.075 0.001-0.113l-0 0.006c0-1.104 0.179-2.207 0.539-3.307 0.372-1.141 0.915-2.13 1.608-2.993l-0.014 0.018c0.703-0.879 1.558-1.604 2.53-2.143l0.043-0.022c1.013-0.559 2.179-0.84 3.488-0.84 0.96 0 1.805 0.149 2.536 0.443 0.727 0.293 1.325 0.707 1.8 1.24 0.467 0.533 0.824 1.16 1.063 1.887 0.241 0.723 0.36 1.528 0.36 2.409 0 1.1-0.176 2.204-0.524 3.307-0.363 1.138-0.891 2.126-1.567 2.995l0.016-0.021c-0.693 0.884-1.545 1.61-2.518 2.141l-0.042 0.021c-1.027 0.56-2.213 0.84-3.56 0.84zM76.677 10c-0.608 0-1.144 0.176-1.604 0.523-0.469 0.361-0.857 0.8-1.151 1.301l-0.011 0.021c-0.316 0.533-0.551 1.116-0.707 1.748-0.144 0.54-0.229 1.162-0.235 1.802l-0 0.003c0 0.919 0.149 1.633 0.441 2.149 0.297 0.512 0.831 0.771 1.607 0.771 0.611 0 1.144-0.173 1.607-0.525 0.459-0.347 0.847-0.787 1.161-1.32 0.315-0.531 0.551-1.116 0.709-1.749 0.155-0.633 0.233-1.236 0.233-1.804 0-0.917-0.148-1.635-0.444-2.149-0.295-0.513-0.831-0.771-1.607-0.771zM87.291 21.404h-4.101l3.461-14.488h4.128l-3.488 14.488zM89.281 5.151c-0.572 0-1.089-0.169-1.549-0.507-0.463-0.339-0.693-0.859-0.693-1.559 0-0.385 0.079-0.747 0.235-1.087 0.157-0.34 0.365-0.635 0.624-0.883 0.259-0.247 0.56-0.444 0.9-0.593 0.34-0.147 0.705-0.219 1.093-0.219 0.573 0 1.089 0.169 1.551 0.509s0.693 0.86 0.693 1.556c0 0.387-0.081 0.749-0.237 1.089-0.306 0.668-0.84 1.187-1.501 1.466l-0.019 0.007c-0.343 0.149-0.707 0.22-1.096 0.22zM93.729 7.576c0.312-0.089 0.659-0.2 1.037-0.317 0.819-0.258 1.787-0.461 2.782-0.571l0.071-0.006c0.581-0.065 1.243-0.097 1.979-0.097 2.16 0 3.651 0.627 4.473 1.875 0.821 1.249 0.964 2.957 0.431 5.124l-1.884 7.823h-4.125l1.827-7.659c0.111-0.479 0.2-0.941 0.263-1.392 0.067-0.448 0.063-0.843-0.013-1.184-0.071-0.337-0.254-0.623-0.508-0.824l-0.003-0.002c-0.271-0.212-0.68-0.316-1.235-0.316-0.533 0-1.077 0.057-1.632 0.167l-2.687 11.211h-4.127l3.351-13.829zM44.213 30.040l-0.803 1.453h-0.871c0.613-1.1 1.211-2.112 1.793-3.037s1.157-1.799 1.727-2.62h0.78c0.081 0.408 0.157 0.821 0.225 1.237 0.103 0.55 0.24 1.493 0.357 2.443l0.032 0.321c0.060 0.511 0.124 1.063 0.189 1.656h-0.804c-0.027-0.244-0.053-0.491-0.075-0.739-0.029-0.336-0.055-0.581-0.084-0.825l0.011 0.112-2.477-0.001zM46.619 29.403c-0.11-1.097-0.234-2.007-0.388-2.907l0.035 0.246c-0.504 0.716-1.060 1.585-1.581 2.476l-0.1 0.185h2.035zM50.552 31.616c-0.356 0-0.669-0.053-0.94-0.156-0.265-0.099-0.491-0.249-0.675-0.439l-0.001-0c-0.179-0.191-0.319-0.422-0.403-0.678l-0.004-0.013c-0.086-0.261-0.136-0.561-0.136-0.872 0-0.014 0-0.027 0-0.040l-0 0.002c0-0.489 0.079-0.957 0.235-1.403 0.156-0.447 0.377-0.84 0.664-1.184 0.284-0.338 0.629-0.614 1.020-0.813l0.018-0.009c0.404-0.204 0.855-0.307 1.353-0.307 0.427 0 0.768 0.045 1.021 0.132 0.255 0.087 0.436 0.168 0.547 0.244l-0.329 0.653c-0.349-0.216-0.773-0.343-1.226-0.343-0.019 0-0.038 0-0.057 0.001l0.003-0c-0.377 0-0.716 0.088-1.017 0.267-0.303 0.179-0.557 0.408-0.758 0.679l-0.005 0.007c-0.208 0.28-0.367 0.596-0.476 0.947-0.102 0.31-0.162 0.668-0.164 1.039v0.001c0 1.063 0.463 1.593 1.387 1.593 0.197 0 0.373-0.015 0.529-0.043 0.156-0.027 0.293-0.057 0.413-0.093 0.12-0.035 0.227-0.075 0.32-0.119l0.247-0.113 0.099 0.685c-0.071 0.041-0.156 0.082-0.244 0.118l-0.014 0.005c-0.099 0.041-0.223 0.083-0.35 0.117l-0.023 0.005c-0.303 0.083-0.65 0.131-1.008 0.131-0.009 0-0.017-0-0.026-0h0.001zM55.161 31.616c-0.355 0-0.668-0.053-0.939-0.156-0.266-0.099-0.492-0.249-0.677-0.439l-0-0c-0.179-0.191-0.319-0.422-0.403-0.678l-0.004-0.013c-0.086-0.259-0.135-0.558-0.135-0.868 0-0.015 0-0.030 0-0.045l-0 0.002c0-0.489 0.077-0.957 0.233-1.403 0.156-0.447 0.377-0.84 0.665-1.184 0.284-0.338 0.628-0.613 1.019-0.813l0.018-0.009c0.405-0.204 0.856-0.307 1.355-0.307 0.427 0 0.767 0.045 1.021 0.132 0.253 0.087 0.436 0.168 0.545 0.244l-0.328 0.653c-0.349-0.216-0.773-0.343-1.226-0.343-0.019 0-0.038 0-0.057 0.001l0.003-0c-0.377 0-0.717 0.088-1.017 0.267-0.303 0.179-0.557 0.408-0.759 0.679l-0.005 0.007c-0.208 0.28-0.365 0.596-0.476 0.947-0.102 0.31-0.162 0.668-0.164 1.039v0.001c0 1.063 0.463 1.593 1.387 1.593 0.197 0 0.373-0.015 0.529-0.043 0.156-0.027 0.293-0.057 0.415-0.093 0.12-0.035 0.227-0.075 0.32-0.119l0.247-0.113 0.099 0.685c-0.071 0.041-0.156 0.082-0.244 0.118l-0.014 0.005c-0.099 0.041-0.223 0.083-0.35 0.117l-0.023 0.005c-0.303 0.083-0.65 0.131-1.008 0.131-0.009 0-0.018-0-0.028-0h0.001zM57.365 31.493l1.361-5.659h3.356l-0.156 0.661h-2.567l-0.411 1.707h2.281l-0.156 0.645h-2.275l-0.484 1.983h2.757l-0.156 0.661h-3.552zM64.459 25.779c0.661 0 1.16 0.125 1.497 0.376 0.336 0.249 0.504 0.613 0.504 1.093 0 0.371-0.069 0.691-0.209 0.96-0.143 0.272-0.344 0.496-0.588 0.661l-0.006 0.004c-0.257 0.173-0.565 0.303-0.927 0.387-0.348 0.081-0.748 0.128-1.159 0.128-0.017 0-0.033-0-0.050-0l0.003 0h-0.567l-0.508 2.107h-0.796l1.347-5.584c0.229-0.055 0.472-0.091 0.729-0.107 0.257-0.017 0.5-0.025 0.731-0.025zM64.36 26.448c-0.389 0-0.624 0.011-0.707 0.032l-0.541 2.245h0.517c0.229 0 0.465-0.020 0.707-0.061 0.24-0.040 0.456-0.112 0.647-0.216 0.193-0.104 0.351-0.249 0.469-0.423l0.003-0.005c0.117-0.185 0.186-0.411 0.186-0.653 0-0.019-0-0.038-0.001-0.056l0 0.003c0-0.309-0.115-0.531-0.345-0.665-0.229-0.133-0.541-0.2-0.935-0.2zM71.315 25.836l-0.156 0.66h-1.715l-1.207 4.996h-0.796l1.207-4.996h-1.715l0.155-0.66h4.227zM70.576 31.493l1.361-5.659h3.356l-0.156 0.661h-2.568l-0.409 1.707h2.28l-0.156 0.645h-2.271l-0.484 1.983h2.756l-0.156 0.661h-3.552zM77.656 25.779c0.843 0 1.472 0.197 1.888 0.592s0.624 0.927 0.624 1.596c0 0.467-0.075 0.919-0.223 1.351-0.147 0.433-0.377 0.813-0.689 1.147-0.328 0.339-0.726 0.608-1.171 0.784l-0.022 0.008c-0.484 0.196-1.063 0.293-1.735 0.293-0.264-0.001-0.524-0.012-0.781-0.034l0.035 0.002c-0.26-0.019-0.502-0.060-0.734-0.121l0.028 0.006 1.321-5.493c0.229-0.053 0.473-0.089 0.731-0.107 0.257-0.016 0.5-0.024 0.729-0.024zM77.591 26.448c-0.409 0-0.656 0.011-0.739 0.032l-1.049 4.36c0.044 0.011 0.117 0.020 0.221 0.028s0.273 0.013 0.508 0.013c0.433 0 0.823-0.072 1.169-0.216s0.641-0.347 0.883-0.605c0.24-0.259 0.427-0.565 0.557-0.921 0.132-0.356 0.197-0.747 0.197-1.172 0-0.479-0.14-0.852-0.419-1.119s-0.721-0.4-1.329-0.4zM86.297 31.493h-0.796l0.632-2.629h-2.635l-0.632 2.628h-0.796l1.363-5.656h0.796l-0.575 2.367h2.635l0.573-2.368h0.797l-1.363 5.657zM87.552 31.493l1.363-5.659h3.355l-0.156 0.661h-2.567l-0.411 1.707h2.281l-0.156 0.645h-2.275l-0.484 1.983h2.757l-0.157 0.661h-3.551zM94.645 25.779c0.608 0 1.089 0.123 1.444 0.368 0.356 0.244 0.533 0.604 0.533 1.076 0 0.48-0.14 0.88-0.423 1.205-0.281 0.324-0.676 0.556-1.185 0.697 0.148 0.263 0.316 0.599 0.468 0.944l0.032 0.081c0.093 0.213 0.184 0.437 0.271 0.668 0.088 0.232 0.164 0.456 0.231 0.673h-0.813c-0.165-0.47-0.245-0.678-0.327-0.884l0.090 0.256c-0.12-0.319-0.204-0.521-0.292-0.721l0.042 0.108c-0.179-0.415-0.343-0.744-0.521-1.064l0.031 0.062c-0.125 0.010-0.27 0.016-0.417 0.016-0.003 0-0.007 0-0.010 0h-0.631l-0.533 2.228h-0.796l1.347-5.584c0.231-0.053 0.473-0.089 0.731-0.107 0.218-0.014 0.472-0.022 0.729-0.023h0.001zM94.547 26.448c-0.388 0-0.623 0.011-0.707 0.032l-0.516 2.14h0.484c0.225 0 0.455-0.016 0.689-0.049 0.236-0.032 0.451-0.096 0.644-0.191s0.353-0.23 0.473-0.396l0.003-0.004c0.123-0.173 0.185-0.4 0.185-0.683 0-0.304-0.116-0.523-0.349-0.653-0.232-0.131-0.535-0.196-0.907-0.196zM96.683 31.493l1.363-5.659h3.356l-0.157 0.661h-2.568l-0.411 1.707h2.281l-0.156 0.645h-2.273l-0.483 1.983h2.756l-0.157 0.661h-3.551zM10.971 21.789c6.040 0 10.936-4.872 10.936-10.88 0-6.009-4.896-10.88-10.936-10.88s-10.936 4.871-10.936 10.88c0 6.008 4.896 10.88 10.936 10.88zM13.387 6.612c1.515 0.52 2.623 1.297 2.405 2.747-0.157 1.060-0.748 1.573-1.533 1.752 1.076 0.559 1.625 1.413 1.103 2.897-0.648 1.841-2.187 1.997-4.233 1.612l-0.497 1.98-1.2-0.297 0.491-1.955c-0.676-0.158-0.997-0.243-1.317-0.331l0.359 0.084-0.493 1.964-1.197-0.299 0.496-1.984-0.32-0.083c-0.176-0.045-0.355-0.093-0.535-0.137l-1.563-0.387 0.597-1.368s0.884 0.233 0.872 0.216c0.34 0.084 0.491-0.136 0.551-0.283l0.784-3.132 0.019 0.004 0.109 0.028c-0.035-0.015-0.077-0.029-0.12-0.039l-0.005-0.001 0.56-2.235c0.015-0.253-0.073-0.573-0.56-0.693 0.019-0.013-0.871-0.217-0.871-0.217l0.32-1.275 1.653 0.411v0.007c0.248 0.061 0.505 0.12 0.767 0.179l0.492-1.961 1.2 0.297-0.483 1.924c0.323 0.072 0.647 0.147 0.961 0.224l0.48-1.911 1.2 0.299-0.493 1.963zM13.049 13.185c-0.34 1.36-2.481 0.797-3.461 0.539-0.088-0.023-0.165-0.044-0.233-0.060l0.66-2.628c0.081 0.020 0.181 0.043 0.293 0.067 1.013 0.227 3.091 0.691 2.741 2.081zM10.515 9.883c0.817 0.217 2.596 0.688 2.907-0.547 0.316-1.264-1.413-1.645-2.259-1.832-0.153-0.032-0.237-0.052-0.321-0.072l0.071 0.015-0.597 2.385 0.199 0.051z"></path>
</symbol>
<symbol id="icon-paypal" viewBox="0 0 120 32">
<path fill="#889099" style="fill: var(--color1, #889099)" d="M91.527 19.202c-0.364 0.233-0.786 0.454-1.226 0.639l-0.056 0.021c-0.603 0.243-1.174 0.371-1.702 0.371-0.812 0-1.435-0.115-1.857-0.361-0.422-0.232-0.643-0.637-0.636-1.216 0-0.669 0.154-1.187 0.474-1.594 0.322-0.391 0.8-0.706 1.393-0.941 0.589-0.2 1.315-0.365 2.152-0.482 0.745-0.094 2.216-0.264 2.405-0.265s0.313-0.105 0.23 0.397c-0.038 0.217-0.462 1.962-0.657 2.756-0.057 0.238-0.373 0.584-0.518 0.677zM97.303 6.94c-1.24-0.691-3.179-1.042-5.832-1.042-1.312 0-2.631 0.106-3.954 0.311-0.971 0.149-1.071 0.173-1.674 0.304-1.241 0.27-1.432 1.513-1.432 1.513l-0.399 1.639c-0.226 1.048 0.371 1.005 0.637 0.924 0.542-0.163 0.836-0.326 1.941-0.576 1.057-0.24 2.174-0.419 3.064-0.412 1.306 0 2.3 0.143 2.96 0.419 0.661 0.288 0.988 0.779 0.988 1.481 0.002 0.167 0.007 0.324-0.054 0.462-0.054 0.128-0.159 0.252-0.471 0.295-1.865 0.111-3.203 0.281-4.815 0.516-1.59 0.224-2.982 0.608-4.145 1.139-1.24 0.55-2.168 1.286-2.807 2.219-0.623 0.937-0.935 2.072-0.937 3.408 0 1.263 0.454 2.294 1.332 3.094 0.889 0.789 2.045 1.18 3.443 1.18 0.874-0.006 1.558-0.069 2.048-0.191 0.613-0.157 1.137-0.342 1.639-0.565l-0.066 0.026c0.418-0.174 0.868-0.427 1.344-0.744s0.806-0.543 1.23-0.82l0.015 0.026-0.119 0.525c-0.001 0.005-0.008 0.008-0.008 0.013l0.004 0.010c-0.136 0.633 0.244 1.159 0.871 1.222l0.008 0.011h0.055l0.002 0.003c0.416 0 1.845-0.001 2.512-0.003h0.466c0.031 0 0.034-0.010 0.046-0.016 0.64-0.078 1.254-0.6 1.398-1.226l2.384-10.291c0.055-0.242 0.098-0.522 0.124-0.843 0.029-0.324 0.064-0.592 0.054-0.785 0.006-1.457-0.621-2.533-1.857-3.225z"></path>
<path fill="#889099" style="fill: var(--color2, #889099)" d="M56.29 6.127c-0.699 0-1.617 0.566-2.051 1.25 0 0-4.678 8.020-5.138 8.822-0.25 0.431-0.503 0.157-0.545-0.003-0.034-0.195-1.45-8.766-1.45-8.766-0.159-0.69-0.88-1.282-1.781-1.28l-2.917 0.004c-0.703 0-1.142 0.563-0.985 1.244 0 0 2.23 12.639 2.665 15.612 0.217 1.644-0.023 1.936-0.023 1.936l-2.891 5.041c-0.423 0.683-0.192 1.243 0.508 1.243l3.38-0.003c0.7 0 1.627-0.557 2.044-1.242l13.005-21.995s1.244-1.879 0.097-1.863c-0.782 0.011-3.918 0-3.918 0zM22.286 4.070c-0.406-0.792-1.014-1.434-1.79-1.92-0.805-0.497-1.742-0.839-2.834-1.046-1.098-0.197-2.381-0.294-3.853-0.307l-6.815 0.005c-0.708 0.008-1.402 0.564-1.566 1.244l-4.595 19.977c-0.158 0.683 0.284 1.248 0.99 1.248h3.265c0.706 0 1.405-0.55 1.564-1.248l1.125-4.848c0.15-0.678 0.848-1.239 1.556-1.239h0.933c3.993-0.004 7.089-0.821 9.315-2.455 2.222-1.632 3.334-3.794 3.328-6.469 0.006-1.175-0.198-2.158-0.623-2.943zM15.236 10.597c-0.984 0.72-2.348 1.080-4.119 1.080h-0.8c-0.705 0-1.151-0.559-0.995-1.247l0.983-4.235c0.15-0.682 0.854-1.248 1.559-1.242l1.068-0.007c1.248 0 2.196 0.214 2.836 0.638 0.631 0.413 0.951 1.066 0.94 1.944 0.019 1.322-0.483 2.345-1.472 3.067z"></path>
<path fill="#889099" style="fill: var(--color1, #889099)" d="M81.558 4.143c-0.407-0.792-1.021-1.429-1.798-1.925-0.796-0.495-1.743-0.84-2.839-1.042-1.084-0.19-2.372-0.299-3.84-0.302l-6.83 0.004c-0.703 0.012-1.393 0.564-1.556 1.244l-4.592 19.983c-0.167 0.679 0.289 1.245 0.98 1.241l3.277-0.006c0.695 0.006 1.403-0.556 1.567-1.235l1.108-4.85c0.155-0.679 0.862-1.249 1.568-1.239h0.932c3.997 0 7.097-0.821 9.316-2.456 2.214-1.643 3.328-3.798 3.328-6.479-0.007-1.17-0.207-2.156-0.623-2.939zM74.512 10.68c-0.979 0.711-2.351 1.068-4.118 1.068h-0.812c-0.703 0.008-1.157-0.56-0.99-1.241l0.979-4.241c0.146-0.671 0.859-1.242 1.552-1.236l1.073-0.006c1.253 0.006 2.19 0.215 2.837 0.632 0.636 0.422 0.945 1.076 0.949 1.947 0.003 1.328-0.488 2.349-1.471 3.077z"></path>
<path fill="#889099" style="fill: var(--color2, #889099)" d="M32.246 19.186c-0.364 0.232-0.785 0.453-1.225 0.638l-0.056 0.021c-0.603 0.242-1.177 0.371-1.704 0.371-0.809 0-1.434-0.115-1.856-0.36-0.422-0.233-0.644-0.638-0.637-1.218 0-0.667 0.156-1.187 0.475-1.593 0.322-0.392 0.798-0.708 1.391-0.942 0.591-0.201 1.319-0.363 2.153-0.482 0.744-0.094 2.218-0.263 2.405-0.266 0.187-0 0.312-0.105 0.228 0.397-0.036 0.217-0.462 1.963-0.657 2.756-0.059 0.239-0.375 0.585-0.517 0.677zM38.022 6.924c-1.24-0.692-3.178-1.041-5.831-1.041-1.312 0-2.63 0.104-3.954 0.31-0.973 0.147-1.071 0.173-1.674 0.304-1.242 0.271-1.433 1.513-1.433 1.513l-0.399 1.64c-0.226 1.048 0.373 1.005 0.637 0.923 0.541-0.163 0.836-0.325 1.942-0.577 1.055-0.239 2.174-0.418 3.063-0.412 1.308 0 2.3 0.143 2.96 0.418 0.662 0.288 0.987 0.78 0.987 1.482 0.004 0.167 0.008 0.324-0.051 0.461-0.055 0.129-0.161 0.253-0.473 0.295-1.863 0.112-3.201 0.282-4.815 0.517-1.59 0.224-2.982 0.608-4.145 1.139-1.24 0.55-2.167 1.287-2.805 2.219-0.625 0.937-0.937 2.071-0.938 3.409 0 1.262 0.455 2.293 1.332 3.092 0.889 0.789 2.044 1.181 3.443 1.181 0.874-0.006 1.558-0.070 2.050-0.192 0.485-0.123 1.015-0.296 1.571-0.538 0.419-0.175 0.869-0.428 1.346-0.744 0.475-0.317 0.807-0.543 1.231-0.82l0.013 0.026-0.119 0.525c-0.001 0.005-0.008 0.008-0.008 0.014l0.005 0.008c-0.136 0.635 0.243 1.16 0.871 1.222l0.008 0.012h0.055l0.002 0.004c0.417 0 1.846-0.002 2.512-0.004h0.467c0.031 0 0.036-0.010 0.045-0.017 0.642-0.081 1.253-0.601 1.4-1.225l2.384-10.291c0.054-0.242 0.098-0.521 0.122-0.842 0.032-0.326 0.066-0.593 0.057-0.785 0.006-1.458-0.621-2.534-1.857-3.226z"></path>
<path fill="#889099" style="fill: var(--color1, #889099)" d="M108.561 1.038l-2.927 0c-0.669 0-1.347 0.512-1.537 1.163-0.008 0.026-0.021 0.052-0.027 0.079l-0.191 0.867-4.012 18.187c-0.103 0.492-0.163 0.744-0.225 0.995l0.052-0.246 0.008 0.010c-0.139 0.636 0.243 1.162 0.87 1.221l0.008 0.012h3.032c0.664 0 1.338-0.508 1.534-1.151 0.009-0.031 0.024-0.060 0.031-0.091l4.377-19.804-0.007-0.002c0.149-0.677-0.288-1.239-0.987-1.239zM114.095 5.071c-0.191 0.052-0.412 0.085-0.64 0.091l-0.004 0c-0.326 0-0.572-0.088-0.741-0.262-0.169-0.175-0.253-0.455-0.253-0.84v-1.689h-0.362v-0.45h0.362v-0.913h0.534v0.913h1.103v0.45h-1.103v1.448c0 0.166 0.005 0.297 0.011 0.391 0.008 0.095 0.035 0.182 0.080 0.263 0.041 0.076 0.099 0.131 0.172 0.167s0.185 0.053 0.335 0.053c0.087 0 0.178-0.013 0.274-0.039 0.094-0.025 0.162-0.046 0.204-0.064h0.027v0.481zM119.376 5.099h-0.534v-1.81c0-0.136-0.006-0.268-0.019-0.395s-0.040-0.228-0.079-0.304c-0.042-0.080-0.107-0.143-0.185-0.184l-0.002-0.001c-0.082-0.042-0.199-0.063-0.353-0.063-0.15 0-0.299 0.037-0.449 0.112-0.171 0.087-0.318 0.182-0.454 0.29l0.006-0.004c0.005 0.044 0.010 0.095 0.014 0.153s0.006 0.115 0.006 0.172v2.034h-0.534v-1.809c0-0.141-0.007-0.274-0.019-0.4s-0.039-0.227-0.078-0.302c-0.043-0.080-0.108-0.143-0.187-0.183l-0.002-0.001c-0.081-0.040-0.199-0.060-0.353-0.060-0.146 0-0.291 0.036-0.439 0.108s-0.293 0.163-0.44 0.276v2.373h-0.535v-3.177h0.535v0.353c0.145-0.123 0.309-0.231 0.486-0.318l0.014-0.006c0.167-0.077 0.342-0.116 0.53-0.116 0.216 0 0.4 0.045 0.551 0.136 0.15 0.092 0.263 0.217 0.337 0.379 0.216-0.182 0.413-0.314 0.592-0.394s0.369-0.121 0.572-0.121c0.349 0 0.606 0.106 0.772 0.316 0.166 0.212 0.249 0.508 0.249 0.887v2.063z"></path>
</symbol>
<symbol id="icon-amex" viewBox="0 0 33 32">
<path fill="#889099" style="fill: var(--color1, #889099)" d="M0.005 0v31.97h31.97v-31.97h-31.97z"></path>
<path fill="#323642" style="fill: var(--color2, #323642)" d="M30.462 15.502h-2.4l-0.523-0.829v0.829h-3.455l-0.307-0.802h-0.571l-0.301 0.802h-2.061c-0.188 0-0.386-0.015-0.585-0.052-0.245-0.045-0.464-0.116-0.669-0.21l0.017 0.007c-0.108-0.050-0.198-0.101-0.284-0.157l0.009 0.005v0.407h-3.445l-0.624-0.812v0.812h-12.465l-0.307-0.802h-0.571l-0.301 0.802h-1.62v-3.197l1.023-2.389h2.287l0.506 1.141v-1.141h2.803l0.334 0.974 0.328-0.974h12.050v0.437c0.183-0.124 0.394-0.227 0.62-0.297l0.017-0.005c0.134-0.041 0.273-0.073 0.416-0.096 0.168-0.026 0.341-0.039 0.518-0.039h3.692l0.501 1.129v-1.129h2.234l0.57 0.893v-0.893h2.562v5.586zM31.979 17.425v5.242c-0.126 0.077-0.263 0.143-0.409 0.197-0.261 0.095-0.551 0.147-0.861 0.147h-10.763l-0.625-0.812v0.812h-2.481v-1.417c-0.356 0.132-0.759 0.212-1.201 0.212h0.037v1.205h-3.557l-0.511-0.727-0.495 0.727h-5.683v-5.586h5.705l0.5 0.716 0.505-0.716h19.838z"></path>
<path fill="#889099" style="fill: var(--color1, #889099)" d="M9.321 18.334h-3.014v3.768h3.014v-0.759h-2.11v-0.759h2.062v-0.754h-2.062v-0.732h2.11v-0.764zM12.459 22.101l-0.926-1.211-0.926 1.212h-1.097l1.502-1.884-1.507-1.884h1.129l0.92 1.195 0.926-1.195h1.097l-1.502 1.868 1.512 1.9h-1.13zM13.788 22.102h0.904v-1.244h1.135c0.824 0 1.335-0.537 1.335-1.265 0-0.747-0.5-1.259-1.302-1.259h-2.072v3.768zM18.982 20.745l1.125 1.356h1.125l-1.254-1.388c0.641-0.119 1.022-0.581 1.022-1.184 0-0.705-0.5-1.195-1.303-1.195h-2.045v3.768h0.904v-1.357h0.425zM24.665 18.334h-3.014v3.768h3.014v-0.759h-2.11v-0.759h2.061v-0.754h-2.061v-0.732h2.11v-0.764zM27.147 21.348c0.215 0 0.371-0.151 0.371-0.382 0-0.226-0.156-0.366-0.371-0.366h-0.867c-0.715 0-1.173-0.398-1.173-1.093 0-0.678 0.485-1.173 1.297-1.173h1.943l-0.334 0.764h-1.636c-0.215 0-0.366 0.151-0.366 0.377 0 0.22 0.151 0.36 0.366 0.36h0.871c0.732 0 1.169 0.393 1.169 1.065 0 0.705-0.485 1.201-1.298 1.201h-1.905v-0.754h1.932zM30.731 21.348c0.215 0 0.372-0.151 0.372-0.382 0-0.226-0.156-0.366-0.372-0.366h-0.866c-0.715 0-1.173-0.398-1.173-1.093 0-0.678 0.485-1.173 1.297-1.173h1.944l-0.334 0.764h-1.636c-0.216 0-0.366 0.151-0.366 0.377 0 0.22 0.151 0.36 0.366 0.36h0.872c0.731 0 1.167 0.393 1.167 1.065 0 0.705-0.484 1.201-1.298 1.201h-1.905v-0.754h1.932zM19.617 19.103c0.323 0 0.495 0.21 0.495 0.468s-0.172 0.463-0.495 0.463h-1.060v-0.93h1.061zM16.254 19.598c0 0.254-0.162 0.463-0.479 0.463h-1.081v-0.926h1.081c0.318 0 0.479 0.204 0.479 0.462zM4.43 14.593l-1.609-3.768h-1.19l-1.615 3.768h0.964l0.318-0.807h1.791l0.323 0.807h1.017zM5.496 11.003l1.044 3.59h0.818l1.044-3.568-0.021 0.99v2.578h0.877v-3.768h-1.593l-0.716 2.67-0.721-2.67h-1.588v3.768h0.876v-2.572l-0.021-1.017zM13.013 11.589h-2.11v0.732h2.061v0.753h-2.061v0.748h2.11v0.77h-3.014v-3.768h3.014v0.764zM15.006 13.237l1.125 1.356h1.124l-1.254-1.388c0.641-0.119 1.023-0.581 1.023-1.184 0-0.705-0.501-1.195-1.303-1.195h-2.046v3.768h0.904v-1.356h0.425zM18.444 14.593v-3.768h-0.904v3.768h0.904zM20.753 14.593c-1.087-0.005-1.738-0.731-1.738-1.851v-0.065c0-1.071 0.635-1.852 1.797-1.852h1.055v0.813h-0.98c-0.646 0-0.974 0.446-0.974 1.045v0.053c0 0.667 0.366 1.055 0.985 1.055h0.274l-0.372 0.802h-0.049zM25.714 14.593l-1.608-3.768h-1.19l-1.614 3.768h0.963l0.318-0.807h1.792l0.323 0.807h1.017zM26.807 12.338l-0.011-0.312 0.188 0.312 1.442 2.255h1.055v-3.768h-0.883v2.18l0.012 0.28-0.167-0.28-1.41-2.18h-1.108v3.768h0.882v-2.255zM23.202 12.23l0.274-0.705 0.274 0.705 0.334 0.834h-1.21l0.328-0.834zM15.64 11.595c0.322 0 0.495 0.21 0.495 0.468 0 0.259-0.172 0.463-0.495 0.463h-1.060v-0.93h1.061zM1.916 12.23l0.275-0.705 0.274 0.705 0.334 0.834h-1.211l0.328-0.834z"></path>
</symbol>
<symbol id="icon-mc" viewBox="0 0 41 32">
<path fill="#889099" style="fill: var(--color1, #889099)" d="M38.652 29.826v1.639h-0.692v-0.401l-0.002 0.003c-0.23 0.294-0.587 0.482-0.989 0.482-0.016 0-0.032-0-0.046-0.001v0c-0.955 0-1.729-0.774-1.729-1.729s0.774-1.729 1.729-1.729l-0.002 0c0.016-0.001 0.032-0.001 0.049-0.001 0.402 0 0.759 0.189 0.991 0.485v-1.729h0.692v2.981zM17.21 28.174v-1.003h-0.726v1.003h-0.657v0.657h0.671v1.521c0 0.768 0.298 1.225 1.149 1.225h-0c0.002 0 0.003 0 0.005 0 0.331 0 0.64-0.095 0.894-0.256l-0.207-0.615c-0.193 0.115-0.412 0.179-0.636 0.187-0.346 0-0.477-0.222-0.477-0.554v-1.508h1.175l-0.007-0.657h-1.183zM7.648 29.405l-0 0.004c0.002-0.029 0.003-0.059 0.003-0.089 0-0.68-0.551-1.231-1.231-1.231-0.025 0-0.050 0.001-0.072 0.002l0.004 0c-0.029-0.002-0.058-0.003-0.087-0.003-0.451 0-0.847 0.233-1.078 0.59l-0.003-0.005c-0.213-0.35-0.598-0.583-1.038-0.583-0.018 0-0.037 0-0.052 0.001-0.387-0.020-0.756 0.167-0.969 0.491v-0.408h-0.719v3.306h0.726v-1.819l0 0.004c-0.005-0.035-0.008-0.072-0.008-0.109 0-0.428 0.347-0.775 0.775-0.775 0.014 0 0.029 0 0.041 0.001 0.478 0 0.72 0.311 0.72 0.871v1.84h0.726v-1.833l0 0.004c-0.005-0.034-0.007-0.070-0.007-0.105 0-0.43 0.348-0.778 0.778-0.778 0.013 0 0.027 0 0.038 0.001 0.491 0 0.726 0.311 0.726 0.871v1.84l0.726-0.014v-2.076zM24.529 28.090l-0.014-0.014h0c0.183 0.001 0.359 0.034 0.512 0.090l-0.222 0.692c-0.143-0.057-0.296-0.086-0.45-0.083-0.456 0-0.691 0.304-0.691 0.85v1.854h-0.719v-3.306h0.712v0.401l0.002-0.005c0.17-0.287 0.483-0.48 0.84-0.48 0.010 0 0.020 0 0.028 0zM13.904 28.090c-0.837 0-1.383 0.401-1.383 1.058 0 0.539 0.401 0.871 1.142 0.975l0.346 0.048c0.394 0.055 0.581 0.159 0.581 0.346 0 0.256-0.263 0.401-0.754 0.401-0.395 0.011-0.782-0.11-1.1-0.346l-0.346 0.56-0.008-0.005c0.388 0.274 0.862 0.435 1.374 0.435 0.023 0 0.046-0 0.066-0.001 0.954 0 1.508-0.449 1.508-1.079s-0.436-0.886-1.155-0.989l-0.346-0.049c-0.311-0.042-0.56-0.103-0.56-0.325s0.236-0.387 0.63-0.387h0.001c0.381 0.004 0.738 0.109 1.036 0.283l0.318-0.581c-0.407-0.242-0.875-0.362-1.349-0.346zM34.519 28.090l-0.014-0.014h0c0.183 0.001 0.359 0.034 0.511 0.090l-0.222 0.692c-0.143-0.057-0.295-0.086-0.449-0.083-0.457 0-0.691 0.304-0.691 0.85v1.854h-0.72v-3.306h0.713v0.401l0.002-0.005c0.17-0.287 0.483-0.48 0.84-0.48 0.010 0 0.020 0 0.028 0zM25.751 31.074l-0-0c0.301 0.295 0.714 0.477 1.169 0.477 0.034 0 0.067-0.001 0.096-0.003l-0.004-0c0.031 0.002 0.061 0.002 0.092 0.002 0.42 0 0.805-0.15 1.101-0.396l-0.346-0.581 0.003-0.003c-0.241 0.185-0.541 0.296-0.868 0.3l-0.004-0c-0.547-0.043-0.977-0.5-0.977-1.058s0.43-1.015 0.981-1.058h0.001c0.326 0.004 0.626 0.115 0.864 0.297l0.346-0.581 0.003 0.002c-0.3-0.249-0.685-0.399-1.105-0.399-0.031 0-0.061 0.001-0.087 0.002l0.005 0c-0.033-0.002-0.065-0.003-0.099-0.003-0.923 0-1.671 0.748-1.671 1.671 0 0.021 0 0.043 0.001 0.061v0.014l0-0.003c-0.001 0.021-0.001 0.043-0.001 0.065 0 0.467 0.192 0.889 0.501 1.193zM31.988 29.82v1.646h-0.719v-0.401l-0.002 0.003c-0.23 0.294-0.587 0.482-0.989 0.482-0.016 0-0.032-0-0.046-0.001v0c-0.955 0-1.729-0.774-1.729-1.729s0.774-1.729 1.729-1.729l-0.002 0c0.016-0.001 0.032-0.001 0.048-0.001 0.402 0 0.759 0.189 0.991 0.485v-0.401h0.72v1.646zM30.346 28.879c-0.011-0-0.024-0.001-0.037-0.001-0.531 0-0.966 0.415-0.998 0.938l-0 0.003c-0.001 0.020-0.002 0.043-0.002 0.066 0 0.548 0.444 0.993 0.993 0.993 0.004 0 0.009-0 0.013-0h-0.001c0.005 0 0.010 0 0.016 0 0.552 0 1-0.448 1-1 0-0.546-0.438-0.99-0.983-0.999h-0.001zM20.631 28.090l0.010 0.007c0.927 0 1.57 0.692 1.57 1.729v0.277h-2.455l0 0.004c0.054 0.455 0.441 0.808 0.911 0.808 0.027 0 0.055-0.001 0.078-0.003h0.001c0.365-0.005 0.699-0.135 0.961-0.346l0.345 0.533 0.004-0.003c-0.347 0.284-0.79 0.455-1.273 0.455-0.036 0-0.072-0.001-0.103-0.003h0.001c-0.009 0-0.017 0-0.026 0-0.955 0-1.729-0.774-1.729-1.729 0-0.947 0.76-1.716 1.705-1.729zM21.215 28.962c-0.147-0.141-0.347-0.228-0.567-0.228-0.006 0-0.012 0-0.018 0l0.001-0h-0.014c-0.009-0-0.019-0-0.029-0-0.453 0-0.823 0.354-0.849 0.8l-0 0.002h1.729c-0.005-0.226-0.101-0.429-0.252-0.575l-0-0zM39.861 30.999c0.089 0.002 0.17 0.037 0.23 0.094l-0-0c0.061 0.059 0.099 0.141 0.099 0.232 0 0.136-0.084 0.252-0.204 0.299l-0.002 0.001c-0.039 0.017-0.084 0.028-0.131 0.028-0 0-0 0-0 0h0c-0.137-0.001-0.256-0.082-0.31-0.198l-0.001-0.002c-0.016-0.037-0.026-0.081-0.026-0.126 0-0.091 0.038-0.174 0.098-0.233l0-0c0.062-0.058 0.145-0.094 0.236-0.094 0.005 0 0.009 0 0.014 0l-0.001-0h-0.002zM39.855 31.583c0.070-0 0.133-0.029 0.177-0.076l0-0c0.041-0.045 0.067-0.106 0.067-0.173s-0.025-0.127-0.067-0.173l0 0c-0.046-0.047-0.109-0.076-0.18-0.076h-0c-0.072 0-0.136 0.029-0.183 0.076v0c-0.042 0.045-0.067 0.106-0.067 0.173s0.026 0.128 0.067 0.173l-0-0c0.024 0.024 0.052 0.043 0.083 0.055 0.030 0.013 0.065 0.021 0.102 0.021 0.003 0 0.006-0 0.009-0h-0.008zM39.963 31.199l0 0c0.019 0.016 0.031 0.040 0.031 0.067 0 0.002-0 0.004-0 0.006v-0c0 0.001 0 0.003 0 0.004 0 0.023-0.009 0.044-0.025 0.059l0-0c-0.019 0.018-0.045 0.029-0.073 0.031l0.101 0.114h-0.080l-0.094-0.114h-0.031v0.114h-0.065v-0.305l0.145-0.004c0.002-0 0.005-0 0.007-0 0.031 0 0.060 0.010 0.083 0.028zM39.797 31.23v0.084h0.076c0.006 0.002 0.013 0.003 0.021 0.003s0.014-0.001 0.021-0.003l-0.001 0c0.002-0.004 0.004-0.010 0.004-0.015s-0.001-0.011-0.004-0.016l0 0c0.002-0.005 0.004-0.010 0.004-0.016s-0.001-0.011-0.004-0.016l0 0c-0.006-0.002-0.013-0.003-0.021-0.003s-0.014 0.001-0.021 0.003l0.001-0-0.076-0.021zM37.028 28.887c-0.011-0-0.024-0.001-0.037-0.001-0.531 0-0.966 0.414-0.998 0.938l-0 0.003c-0.001 0.020-0.002 0.043-0.002 0.066 0 0.548 0.444 0.993 0.993 0.993 0.004 0 0.009-0 0.013-0h-0.001c0.551-0.002 0.996-0.448 0.996-0.999 0-0.54-0.428-0.979-0.963-0.999l-0.002-0zM11.705 29.826v1.639h-0.72v-0.401l-0.002 0.003c-0.23 0.294-0.587 0.482-0.989 0.482-0.016 0-0.032-0-0.046-0.001v0c-0.955 0-1.729-0.774-1.729-1.729s0.774-1.729 1.729-1.729l-0.002 0c0.016-0.001 0.032-0.001 0.049-0.001 0.402 0 0.759 0.189 0.991 0.485v-0.401h0.719v1.653zM10.063 28.887c-0.011-0-0.025-0.001-0.038-0.001-0.531 0-0.966 0.414-0.998 0.938l-0 0.003h-0.006c-0.001 0.020-0.002 0.043-0.002 0.066 0 0.548 0.444 0.993 0.993 0.993 0.007 0 0.013-0 0.020-0h-0.001c0.551-0.001 0.997-0.448 0.997-0.999 0-0.54-0.428-0.979-0.963-0.999l-0.002-0z"></path>
<path fill="#889099" style="fill: var(--color1, #889099)" opacity="0.4" d="M15.706 12.77c0-0.004 0-0.008 0-0.013 0-3.957 1.849-7.482 4.73-9.758l0.026-0.020c-5.105-4.012-12.435-3.428-16.84 1.343-4.404 4.769-4.404 12.123 0 16.892 4.405 4.77 11.735 5.354 16.84 1.343-2.907-2.296-4.756-5.821-4.756-9.778 0-0.003 0-0.007 0-0.010v0.001z"></path>
<path fill="#889099" style="fill: var(--color1, #889099)" d="M40.606 12.77c-0 6.876-5.574 12.45-12.45 12.45-2.916 0-5.599-1.003-7.721-2.683l0.026 0.020c2.908-2.3 4.757-5.829 4.757-9.789s-1.849-7.489-4.731-9.769l-0.026-0.020c2.096-1.66 4.778-2.663 7.695-2.663 6.876 0 12.45 5.574 12.45 12.45v0 0.004z"></path>
<path fill="#889099" style="fill: var(--color1, #889099)" opacity="0.65" d="M20.572 22.88c-2.994-2.308-4.923-5.929-4.923-10s1.929-7.693 4.923-10c2.994 2.307 4.923 5.928 4.923 10s-1.929 7.692-4.923 10z"></path>
<path fill="#889099" style="fill: var(--color1, #889099)" d="M39.417 20.081v0.401h-0.073v-0.401h-0.177v-0.083h0.412v0.083h-0.162zM40.215 19.998v0.484l-0.073 0.004v-0.367l-0.135 0.315h-0.092l-0.135-0.315v0.363h-0.090v-0.484h0.111l0.145 0.346 0.145-0.346h0.124z"></path>
</symbol>
<symbol id="icon-visa" viewBox="0 0 99 32">
<path fill="#889099" style="fill: var(--color1, #889099)" d="M64.179 0.049c-6.991 0-13.238 3.624-13.238 10.318 0 7.678 11.080 8.208 11.080 12.065 0 1.624-1.861 3.078-5.040 3.078-4.511 0-7.883-2.031-7.883-2.031l-1.443 6.756s3.884 1.716 9.041 1.716c7.643 0 13.658-3.802 13.658-10.611 0-8.113-11.126-8.627-11.126-12.207 0-1.272 1.528-2.666 4.697-2.666 3.576 0 6.494 1.477 6.494 1.477l1.412-6.525s-3.175-1.37-7.652-1.37zM0.219 0.542l-0.169 0.985s2.941 0.538 5.59 1.612c3.411 1.231 3.654 1.948 4.228 4.174l6.259 24.13h8.391l12.927-30.901h-8.372l-8.306 21.010-3.389-17.809c-0.311-2.038-1.885-3.201-3.813-3.201h-13.346zM40.811 0.542l-6.567 30.901h7.983l6.544-30.901h-7.96zM85.335 0.542c-1.925 0-2.945 1.031-3.693 2.832l-11.696 28.070h8.372l1.62-4.678h10.199l0.985 4.678h7.387l-6.444-30.901h-6.729zM86.424 8.89l2.481 11.596h-6.648l4.167-11.596z"></path>
</symbol>
<symbol id="icon-popular" viewBox="0 0 32 32">
<path fill="#46b843" style="fill: var(--color1, #46b843)" d="M19.851 12.338v-0.001zM19.851 12.337h-0.001zM25.767 25.601v1.067h1.124l-0.059-1.123-1.065 0.055zM23.814 25.601l-1.065 0.061 0.058 1.005h1.007v-1.067zM6.597 8.359h-1.067v1.006l1.005 0.059 0.062-1.065zM6.597 6.418l0.055-1.066-1.122-0.059v1.124h1.067zM22.765 25.991l-1.066 0.041v0.002l1.066-0.043zM6.205 9.408l-0.042 1.066h0.001l0.042-1.066zM26.852 25.991v0zM20.605 11.583l-0.755 0.754 0.001 0.001 0.754-0.755zM6.205 5.334l-0.034 1.066h0.001l0.034-1.067zM15.473 16.708v0zM6.2 12.592l0.050-1.065h-0.003l-0.046 1.065zM19.589 25.992v0zM15.494 25.995h-0zM12.589 19.581l-0.755 0.753 0.002 0.003 0.753-0.756zM6.199 16.672l-0.073 1.065h0.002l0.071-1.065zM6.597 13.686l0.086-1.063-1.153-0.094v1.157h1.067zM14.718 17.462l-0.755 0.754 0.002 0.002 0.753-0.755zM6.597 15.635h-1.067v0.969l0.964 0.093 0.103-1.062zM13.343 18.827l-0.756 0.753 0.002 0.002 0.754-0.755zM16.533 25.6l-1.062 0.101 0.092 0.965h0.97v-1.067zM18.495 25.6v1.067h1.157l-0.094-1.154-1.063 0.087zM14.719 17.461l0.754-0.754-0.001-0.001-0.754 0.755zM20.605 11.582h-0.001l-1.508 1.508 1.509-1.508zM26.833 25.544c-0.284-5.437-2.611-10.346-6.228-13.962l-1.508 1.509c3.259 3.257 5.351 7.674 5.606 12.564l2.131-0.111zM23.814 26.667h1.953v-2.133h-1.954v2.133zM6.535 9.424c8.709 0.505 15.714 7.517 16.213 16.237l2.13-0.123c-0.562-9.8-8.428-17.677-18.22-18.244l-0.123 2.13zM5.53 6.418v1.941h2.133v-1.941h-2.133zM20.604 11.583c-3.618-3.622-8.518-5.946-13.952-6.23l-0.112 2.13c4.887 0.256 9.295 2.345 12.555 5.608l1.509-1.508zM23.83 25.951c-0.365-9.54-8.055-17.239-17.584-17.609l-0.083 2.132c8.414 0.326 15.213 7.131 15.535 15.559l2.132-0.082zM23.445 25.6c0.004-0 0.009-0 0.014-0 0.198 0 0.36 0.154 0.373 0.349l0 0.001-2.132 0.085c0.036 0.895 0.759 1.699 1.746 1.699v-2.133zM26.197 25.6h-2.752v2.133h2.752v-2.133zM25.786 26.027c-0-0.005-0-0.010-0-0.016 0-0.227 0.184-0.411 0.411-0.411 0 0 0.001 0 0.001 0h-0v2.133c0.951-0 1.722-0.772 1.722-1.723 0-0.019-0-0.037-0.001-0.056l0 0.003-2.132 0.069zM19.851 12.338c3.532 3.531 5.767 8.356 5.935 13.688l2.132-0.067c-0.185-5.897-2.659-11.232-6.559-15.131l-1.508 1.509zM6.171 6.4c5.33 0.168 10.146 2.4 13.679 5.937l1.509-1.507c-3.901-3.906-9.226-6.376-15.121-6.562l-0.068 2.132zM6.597 5.989c0 0 0 0 0 0 0 0.227-0.184 0.411-0.411 0.411-0.006 0-0.011-0-0.017-0l0.001 0 0.069-2.132c-0.016-0.001-0.035-0.001-0.053-0.001-0.951 0-1.723 0.771-1.723 1.723 0 0 0 0 0 0v-0h2.133zM6.597 8.729v-2.739h-2.133v2.739h2.133zM6.247 8.342c0.196 0.013 0.35 0.175 0.35 0.373 0 0.005-0 0.009-0 0.014l0-0.001h-2.133c0 0.981 0.8 1.71 1.699 1.746l0.085-2.132zM16.228 15.955c-2.578-2.582-6.086-4.245-9.978-4.428l-0.1 2.131c3.338 0.156 6.349 1.581 8.569 3.804l1.509-1.507zM20.654 25.941c-0.187-3.89-1.842-7.4-4.427-9.987l-1.509 1.508c2.226 2.227 3.645 5.242 3.805 8.581l2.131-0.102zM18.94 27.733c0.964 0 1.761-0.803 1.715-1.791l-2.131 0.1c-0-0.007-0.001-0.016-0.001-0.024 0-0.23 0.186-0.417 0.417-0.418h0v2.133zM16.183 27.733h2.756v-2.133h-2.756v2.133zM14.43 26.065c0.057 0.869 0.769 1.669 1.754 1.669v-2.133c0.122 0 0.219 0.052 0.277 0.11 0.056 0.055 0.093 0.13 0.098 0.213l0 0.001-2.129 0.14zM11.836 20.337c1.541 1.536 2.45 3.559 2.594 5.729l2.129-0.141c-0.178-2.681-1.304-5.191-3.216-7.098l-1.507 1.511zM6.129 17.737c2.151 0.144 4.165 1.054 5.705 2.598l1.511-1.506c-1.825-1.837-4.294-3.032-7.040-3.218l-0.034-0.002-0.142 2.129zM4.464 15.982c0 0.979 0.788 1.694 1.662 1.755l0.147-2.128c0.183 0.018 0.325 0.171 0.325 0.357 0 0.006-0 0.011-0 0.017l0-0.001h-2.133zM4.464 13.244v2.737h2.133v-2.737h-2.133zM6.246 11.527c-0.996-0.044-1.782 0.763-1.782 1.717h2.133c-0.003 0.23-0.19 0.415-0.42 0.415-0.009 0-0.017-0-0.026-0.001l0.001 0 0.093-2.132zM6.51 14.75c2.896 0.236 5.505 1.515 7.453 3.466l1.509-1.507c-2.291-2.295-5.367-3.806-8.789-4.085l-0.173 2.127zM7.664 15.635v-1.948h-2.133v1.948h2.133zM14.099 18.074c-1.919-1.93-4.487-3.214-7.349-3.497l-0.050-0.004-0.205 2.124c2.398 0.236 4.513 1.294 6.093 2.883l0.001 0 1.511-1.506zM17.594 25.499c-0.281-2.921-1.564-5.499-3.497-7.426l-0-0-1.507 1.51c1.593 1.588 2.65 3.712 2.877 6.079l0.003 0.040 2.124-0.203zM18.495 24.533h-1.963v2.133h1.963v-2.133zM13.964 18.217c1.954 1.955 3.23 4.569 3.467 7.471l2.126-0.174c-0.281-3.424-1.787-6.505-4.085-8.805l-1.508 1.509zM13.965 18.217v0.001l1.507-1.511-1.507 1.51z"></path>
<path fill="none" stroke="#46b843" style="stroke: var(--color1, #46b843)" stroke-linejoin="miter" stroke-linecap="butt" stroke-miterlimit="4" stroke-width="1.0667" d="M10.631 23.884c0 1.537-1.246 2.782-2.782 2.782s-2.782-1.246-2.782-2.782c0-1.537 1.246-2.782 2.782-2.782s2.782 1.246 2.782 2.782z"></path>
</symbol>
<symbol id="icon-announcements" viewBox="0 0 32 32">
<path fill="none" stroke="#46b843" style="stroke: var(--color1, #46b843)" stroke-linejoin="miter" stroke-linecap="butt" stroke-miterlimit="4" stroke-width="1.0667" d="M23.5 17.663v0.123l0.054 0.111 2.095 4.29c0.030 0.059 0.047 0.129 0.047 0.203 0 0.254-0.206 0.46-0.46 0.461h-6.671v0.63c0 1.465-1.187 2.652-2.652 2.652s-2.652-1.187-2.652-2.652v0-0.63h-6.667c-0.254-0-0.46-0.206-0.46-0.461 0-0.074 0.017-0.143 0.048-0.205l-0.001 0.003v-0.001l2.149-4.4v-4.222c-0-0.024-0-0.053-0-0.081 0-3.135 1.945-5.816 4.694-6.902l0.050-0.018 0.004-0.002 0.004-0.002 0.002-0.001 0.011-0.004 0.044-0.017c0.2-0.079 0.472-0.169 0.749-0.246l0.069-0.016c0.536-0.146 1.226-0.286 1.89-0.286 0.667 0 1.393 0.14 1.968 0.288 0.401 0.103 0.714 0.2 1.020 0.309l-0.083-0.026 0.009 0.004c2.802 1.143 4.741 3.846 4.741 7.001v4.098z"></path>
<path fill="none" stroke="#46b843" style="stroke: var(--color1, #46b843)" stroke-linejoin="miter" stroke-linecap="square" stroke-miterlimit="4" stroke-width="1.0667" d="M8.19 23.076h15.239"></path>
</symbol>
<symbol id="icon-search" viewBox="0 0 32 32">
<path d="M13.44 1.92c-6.003 0-10.88 4.877-10.88 10.88s4.877 10.88 10.88 10.88c2.374 0 4.57-0.765 6.36-2.060l8.42 8.4 1.8-1.8-8.32-8.34c1.628-1.884 2.62-4.358 2.62-7.063 0-0.006 0-0.011 0-0.017v0.001c0-6.003-4.877-10.88-10.88-10.88zM13.44 3.2c5.31 0 9.6 4.29 9.6 9.6s-4.29 9.6-9.6 9.6-9.6-4.29-9.6-9.6 4.29-9.6 9.6-9.6z"></path>
</symbol>
<symbol id="icon-comment" viewBox="0 0 32 32">
<path fill="none" stroke="#889099" style="stroke: var(--color1, #889099)" stroke-linejoin="miter" stroke-linecap="butt" stroke-miterlimit="4" stroke-width="2" d="M5 26v-1h-3c-0.622 0-1-0.404-1-0.904v-21.956c0-0.654 0.53-1.14 1-1.14h28c0.47 0 1 0.486 1 1.14v21.956c0 0.5-0.378 0.904-1 0.904h-13.684l-10.962 5.688c-0.101 0.052-0.218 0.097-0.341 0.128l-0.011 0.002-0.002-0.066v-4.752z"></path>
</symbol>
<symbol id="icon-copy" viewBox="0 0 64 32">
<path d="M0 0h64l-32 32-32-32z"></path>
</symbol>
</defs>
</svg>
