<svg aria-hidden="true" style="position: absolute; width: 0; height: 0; overflow: hidden;" version="1.1" xmlns="http://www.w3.org/2000/svg" xmlns:xlink="http://www.w3.org/1999/xlink">
<defs>
<symbol id="icon-popular" viewBox="0 0 32 32">
<path fill="#46b843" style="fill: var(--color1, #46b843)" d="M19.851 12.338v-0.001zM19.851 12.337h-0.001zM25.767 25.601v1.067h1.124l-0.059-1.123-1.065 0.055zM23.814 25.601l-1.065 0.061 0.058 1.005h1.007v-1.067zM6.597 8.359h-1.067v1.006l1.005 0.059 0.062-1.065zM6.597 6.418l0.055-1.066-1.122-0.059v1.124h1.067zM22.765 25.991l-1.066 0.041v0.002l1.066-0.043zM6.205 9.408l-0.042 1.066h0.001l0.042-1.066zM26.852 25.991v0zM20.605 11.583l-0.755 0.754 0.001 0.001 0.754-0.755zM6.205 5.334l-0.034 1.066h0.001l0.034-1.067zM15.473 16.708v0zM6.2 12.592l0.050-1.065h-0.003l-0.046 1.065zM19.589 25.992v0zM15.494 25.995h-0zM12.589 19.581l-0.755 0.753 0.002 0.003 0.753-0.756zM6.199 16.672l-0.073 1.065h0.002l0.071-1.065zM6.597 13.686l0.086-1.063-1.153-0.094v1.157h1.067zM14.718 17.462l-0.755 0.754 0.002 0.002 0.753-0.755zM6.597 15.635h-1.067v0.969l0.964 0.093 0.103-1.062zM13.343 18.827l-0.756 0.753 0.002 0.002 0.754-0.755zM16.533 25.6l-1.062 0.101 0.092 0.965h0.97v-1.067zM18.495 25.6v1.067h1.157l-0.094-1.154-1.063 0.087zM14.719 17.461l0.754-0.754-0.001-0.001-0.754 0.755zM20.605 11.582h-0.001l-1.508 1.508 1.509-1.508zM26.833 25.544c-0.284-5.437-2.611-10.346-6.228-13.962l-1.508 1.509c3.259 3.257 5.351 7.674 5.606 12.564l2.131-0.111zM23.814 26.667h1.953v-2.133h-1.954v2.133zM6.535 9.424c8.709 0.505 15.714 7.517 16.213 16.237l2.13-0.123c-0.562-9.8-8.428-17.677-18.22-18.244l-0.123 2.13zM5.53 6.418v1.941h2.133v-1.941h-2.133zM20.604 11.583c-3.618-3.622-8.518-5.946-13.952-6.23l-0.112 2.13c4.887 0.256 9.295 2.345 12.555 5.608l1.509-1.508zM23.83 25.951c-0.365-9.54-8.055-17.239-17.584-17.609l-0.083 2.132c8.414 0.326 15.213 7.131 15.535 15.559l2.132-0.082zM23.445 25.6c0.004-0 0.009-0 0.014-0 0.198 0 0.36 0.154 0.373 0.349l0 0.001-2.132 0.085c0.036 0.895 0.759 1.699 1.746 1.699v-2.133zM26.197 25.6h-2.752v2.133h2.752v-2.133zM25.786 26.027c-0-0.005-0-0.010-0-0.016 0-0.227 0.184-0.411 0.411-0.411 0 0 0.001 0 0.001 0h-0v2.133c0.951-0 1.722-0.772 1.722-1.723 0-0.019-0-0.037-0.001-0.056l0 0.003-2.132 0.069zM19.851 12.338c3.532 3.531 5.767 8.356 5.935 13.688l2.132-0.067c-0.185-5.897-2.659-11.232-6.559-15.131l-1.508 1.509zM6.171 6.4c5.33 0.168 10.146 2.4 13.679 5.937l1.509-1.507c-3.901-3.906-9.226-6.376-15.121-6.562l-0.068 2.132zM6.597 5.989c0 0 0 0 0 0 0 0.227-0.184 0.411-0.411 0.411-0.006 0-0.011-0-0.017-0l0.001 0 0.069-2.132c-0.016-0.001-0.035-0.001-0.053-0.001-0.951 0-1.723 0.771-1.723 1.723 0 0 0 0 0 0v-0h2.133zM6.597 8.729v-2.739h-2.133v2.739h2.133zM6.247 8.342c0.196 0.013 0.35 0.175 0.35 0.373 0 0.005-0 0.009-0 0.014l0-0.001h-2.133c0 0.981 0.8 1.71 1.699 1.746l0.085-2.132zM16.228 15.955c-2.578-2.582-6.086-4.245-9.978-4.428l-0.1 2.131c3.338 0.156 6.349 1.581 8.569 3.804l1.509-1.507zM20.654 25.941c-0.187-3.89-1.842-7.4-4.427-9.987l-1.509 1.508c2.226 2.227 3.645 5.242 3.805 8.581l2.131-0.102zM18.94 27.733c0.964 0 1.761-0.803 1.715-1.791l-2.131 0.1c-0-0.007-0.001-0.016-0.001-0.024 0-0.23 0.186-0.417 0.417-0.418h0v2.133zM16.183 27.733h2.756v-2.133h-2.756v2.133zM14.43 26.065c0.057 0.869 0.769 1.669 1.754 1.669v-2.133c0.122 0 0.219 0.052 0.277 0.11 0.056 0.055 0.093 0.13 0.098 0.213l0 0.001-2.129 0.14zM11.836 20.337c1.541 1.536 2.45 3.559 2.594 5.729l2.129-0.141c-0.178-2.681-1.304-5.191-3.216-7.098l-1.507 1.511zM6.129 17.737c2.151 0.144 4.165 1.054 5.705 2.598l1.511-1.506c-1.825-1.837-4.294-3.032-7.040-3.218l-0.034-0.002-0.142 2.129zM4.464 15.982c0 0.979 0.788 1.694 1.662 1.755l0.147-2.128c0.183 0.018 0.325 0.171 0.325 0.357 0 0.006-0 0.011-0 0.017l0-0.001h-2.133zM4.464 13.244v2.737h2.133v-2.737h-2.133zM6.246 11.527c-0.996-0.044-1.782 0.763-1.782 1.717h2.133c-0.003 0.23-0.19 0.415-0.42 0.415-0.009 0-0.017-0-0.026-0.001l0.001 0 0.093-2.132zM6.51 14.75c2.896 0.236 5.505 1.515 7.453 3.466l1.509-1.507c-2.291-2.295-5.367-3.806-8.789-4.085l-0.173 2.127zM7.664 15.635v-1.948h-2.133v1.948h2.133zM14.099 18.074c-1.919-1.93-4.487-3.214-7.349-3.497l-0.050-0.004-0.205 2.124c2.398 0.236 4.513 1.294 6.093 2.883l0.001 0 1.511-1.506zM17.594 25.499c-0.281-2.921-1.564-5.499-3.497-7.426l-0-0-1.507 1.51c1.593 1.588 2.65 3.712 2.877 6.079l0.003 0.040 2.124-0.203zM18.495 24.533h-1.963v2.133h1.963v-2.133zM13.964 18.217c1.954 1.955 3.23 4.569 3.467 7.471l2.126-0.174c-0.281-3.424-1.787-6.505-4.085-8.805l-1.508 1.509zM13.965 18.217v0.001l1.507-1.511-1.507 1.51z"></path>
<path fill="none" stroke="#46b843" style="stroke: var(--color1, #46b843)" stroke-linejoin="miter" stroke-linecap="butt" stroke-miterlimit="4" stroke-width="1.0667" d="M10.631 23.884c0 1.537-1.246 2.782-2.782 2.782s-2.782-1.246-2.782-2.782c0-1.537 1.246-2.782 2.782-2.782s2.782 1.246 2.782 2.782z"></path>
</symbol>
<symbol id="icon-announcements" viewBox="0 0 32 32">
<path fill="none" stroke="#46b843" style="stroke: var(--color1, #46b843)" stroke-linejoin="miter" stroke-linecap="butt" stroke-miterlimit="4" stroke-width="1.0667" d="M23.5 17.663v0.123l0.054 0.111 2.095 4.29c0.030 0.059 0.047 0.129 0.047 0.203 0 0.254-0.206 0.46-0.46 0.461h-6.671v0.63c0 1.465-1.187 2.652-2.652 2.652s-2.652-1.187-2.652-2.652v0-0.63h-6.667c-0.254-0-0.46-0.206-0.46-0.461 0-0.074 0.017-0.143 0.048-0.205l-0.001 0.003v-0.001l2.149-4.4v-4.222c-0-0.024-0-0.053-0-0.081 0-3.135 1.945-5.816 4.694-6.902l0.050-0.018 0.004-0.002 0.004-0.002 0.002-0.001 0.011-0.004 0.044-0.017c0.2-0.079 0.472-0.169 0.749-0.246l0.069-0.016c0.536-0.146 1.226-0.286 1.89-0.286 0.667 0 1.393 0.14 1.968 0.288 0.401 0.103 0.714 0.2 1.020 0.309l-0.083-0.026 0.009 0.004c2.802 1.143 4.741 3.846 4.741 7.001v4.098z"></path>
<path fill="none" stroke="#46b843" style="stroke: var(--color1, #46b843)" stroke-linejoin="miter" stroke-linecap="square" stroke-miterlimit="4" stroke-width="1.0667" d="M8.19 23.076h15.239"></path>
</symbol>
<symbol id="icon-icon_search" viewBox="0 0 32 32">
<path d="M13.44 1.92c-6.003 0-10.88 4.877-10.88 10.88s4.877 10.88 10.88 10.88c2.374 0 4.57-0.765 6.36-2.060l8.42 8.4 1.8-1.8-8.32-8.34c1.628-1.884 2.62-4.358 2.62-7.063 0-0.006 0-0.011 0-0.017v0.001c0-6.003-4.877-10.88-10.88-10.88zM13.44 3.2c5.31 0 9.6 4.29 9.6 9.6s-4.29 9.6-9.6 9.6-9.6-4.29-9.6-9.6 4.29-9.6 9.6-9.6z"></path>
</symbol>
<symbol id="icon-comment" viewBox="0 0 32 32">
<path fill="none" stroke="#889099" style="stroke: var(--color2, #889099)" stroke-linejoin="miter" stroke-linecap="butt" stroke-miterlimit="4" stroke-width="2" d="M5 26v-1h-3c-0.622 0-1-0.404-1-0.904v-21.956c0-0.654 0.53-1.14 1-1.14h28c0.47 0 1 0.486 1 1.14v21.956c0 0.5-0.378 0.904-1 0.904h-13.684l-10.962 5.688c-0.101 0.052-0.218 0.097-0.341 0.128l-0.011 0.002-0.002-0.066v-4.752z"></path>
</symbol>
<symbol id="icon-copy" viewBox="0 0 64 32">
<path d="M0 0h64l-32 32-32-32z"></path>
</symbol>
</defs>
</svg>
